<svg id="Laag_1" data-name="Laag 1" xmlns="http://www.w3.org/2000/svg" viewBox="0 0 530.47 530.47"><defs><style>.cls-1{fill:#171d21;}.cls-2{fill:#fff;fill-rule:evenodd;}</style></defs><title>facebook</title><path class="cls-1" d="M509.25,394.54a93.32,93.32,0,0,1,93.21,93.21v314A93.32,93.32,0,0,1,509.25,895h-314A93.32,93.32,0,0,1,102,801.78v-314a93.32,93.32,0,0,1,93.21-93.21h314m0-15h-314C135.7,379.53,87,428.23,87,487.75v314C87,861.3,135.7,910,195.22,910h314c59.52,0,108.22-48.7,108.22-108.22v-314c0-59.52-48.7-108.22-108.22-108.22Z" transform="translate(-87 -379.53)"/><rect class="cls-1" x="53.17" y="53.17" width="424.13" height="424.13" rx="6.25" ry="6.25"/><path class="cls-2" d="M385.83,571.85c7.91-.27,15.81-.06,23.74-.08h3.27V530.63c-4.23-.43-8.65-1-13.08-1.25-8.11-.36-16.23-.77-24.36-.58-12.4.26-24.13,3.28-34.39,10.63-11.75,8.46-18.21,20.33-20.66,34.36a119.61,119.61,0,0,0-1.43,17.66c-.23,9.23-.05,18.46,0,27.71v3.45H279.51v46h39.14V784.12H366.5V668.76h39c2-15.28,4-30.41,6-46.18h-8.77c-11.1,0-36.57,0-36.57,0s.11-22.78.38-32.67C366.94,576.37,375,572.24,385.83,571.85Z" transform="translate(-87 -379.53)"/></svg>